<svg xmlns="http://www.w3.org/2000/svg" viewBox="0 0 48 48" width="48" height="48">
  <path d="M24 2c12.15 0 22 9.85 22 22 0 9.747-6.312 18.02-15.064 20.745-.6.112-.82-.26-.82-.578 0-.284.01-1.04.015-2.04 3.338.726 4.042-1.61 4.042-1.61.546-1.386 1.333-1.755 1.333-1.755 1.089-.744-.084-.729-.084-.729-1.205.084-1.838 1.236-1.838 1.236-1.07 1.835-2.809 1.305-3.495.998.108-.776.418-1.305.76-1.605-2.665-.3-5.466-1.332-5.466-5.93 0-1.31.465-2.38 1.235-3.22-.123-.303-.536-1.523.117-3.176 0 0 1.008-.322 3.301 1.23.957-.266 1.983-.399 3.003-.405 1.02.006 2.047.139 3.006.405 2.28-1.552 3.285-1.23 3.285-1.23.655 1.653.245 2.873.12 3.176.77.84 1.235 1.911 1.235 3.22 0 4.61-2.807 5.625-5.475 5.92.43.36.81 1.096.81 2.22 0 1.605-.015 2.896-.015 3.286 0 .315.21.69.825.57C39.688 42.02 46 33.747 46 24 46 11.85 36.15 2 24 2z" fill="#1e293b"/>
</svg>